<svg width="2121" height="339" viewBox="0 0 2121 339" fill="none" xmlns="http://www.w3.org/2000/svg">
<path fill-rule="evenodd" clip-rule="evenodd" d="M1616.62 5.85517H1702.81V136.279H1877.43V5.85517H1963.65V331.63H1877.43V187.912H1702.81V331.63H1616.62V5.85517ZM0 5.85517H86.2359V136.279H260.822V5.85517H347.59V331.63H260.822V187.912H86.2359V331.63H0V5.85517V5.85517ZM418.91 5.85517H506.223V331.63H418.91V5.85517ZM2033.39 5.85517H2120.69V331.63H2033.39V5.85517ZM538.154 5.85517H877.236V60.1466H750.547V331.63H664.843V60.1466H538.154V5.85517ZM951.747 207.068L1011.9 61.7419L1071.52 207.068H951.747ZM1093.34 258.701L1123.16 331.63H1220.58L1066.74 6.38693H957.61L802.712 331.63H899.583L929.932 258.701H1093.34ZM1482.99 116.578H1571.36C1570.28 57.4877 1519.19 1.06927 1400.48 0.00575146C1312.13 -0.526009 1205.12 35.6726 1204.58 168.211C1204.05 299.685 1313.18 340.67 1400.48 338.543C1480.85 335.884 1570.28 313.537 1574.02 214.526L1485.12 215.057C1482.46 276.819 1432.96 289.05 1400.49 289.582C1366.95 289.582 1298.27 282.669 1297.24 169.819C1296.17 63.3631 1358.97 48.4608 1400.49 48.4608C1441.47 48.9796 1482.46 68.1489 1482.99 116.578V116.578Z" fill="#CF4044"/>
</svg>
