<svg id="Layer_1" data-name="Layer 1" xmlns="http://www.w3.org/2000/svg" xmlns:xlink="http://www.w3.org/1999/xlink" viewBox="0 0 571.64 144.81"><defs><style>.cls-1{fill:url(#Super_Soft_Black_Vignette);}.cls-2{fill:#ffde00;}.cls-3{fill:#fff;}.cls-4{fill:none;stroke:#fff;stroke-miterlimit:10;stroke-width:5px;}</style><radialGradient id="Super_Soft_Black_Vignette" cx="-345.8" cy="-2495.37" r="258.81" gradientTransform="translate(573.97 1336.46) scale(0.83 0.51)" gradientUnits="userSpaceOnUse"><stop offset="0.57" stop-color="#130c0e"/><stop offset="0.8" stop-color="#130c0e"/><stop offset="1" stop-color="#130c0e"/></radialGradient></defs><rect class="cls-1" x="3" y="3" width="565.64" height="138.81"/><path class="cls-2" d="M565.64,6V138.81H6V6H565.64m6-6H0V144.81H571.64V0Z"/><path class="cls-3" d="M82.76,16.54V31.92H63.89V77.25H39.21V31.92H20.33V16.54Z"/><path class="cls-3" d="M115.23,56.2v21H90.45V16.54h39.8q11.55,0,18.25,5.16t6.71,14.55q0,13.41-12.61,18.06l13.86,22.94H128.91l-11.63-21Zm0-24.28v8.9h9.48q4.29,0,4.29-4.45t-4.29-4.45Z"/><path class="cls-3" d="M201.27,69.92H182.66l-2,7.33h-22L179.8,16.54h28.35l21.11,60.71H203.59Zm-4.83-15.38-5.19-17.82-4.47,17.82Z"/><path class="cls-3" d="M266.11,32.72q-9,.08-9,14.18t9,14.17q6.79,0,8.59-7.31l23.79,4.7q-2.14,7.6-10.38,13.2t-22.89,5.59q-14.69,0-24.42-8.09t-9.75-22.6q0-14.51,10.46-22.26a38.36,38.36,0,0,1,23.39-7.76q12.93,0,22,5t11.59,13.84L274.7,40Q272.72,32.72,266.11,32.72Z"/><path class="cls-3" d="M365.83,16.54V31.92H347V77.25H322.28V31.92H303.41V16.54Z"/><path class="cls-3" d="M470.29,56.2v21H445.52V16.54h39.8q11.54,0,18.25,5.16t6.7,14.55q0,13.41-12.61,18.06l13.87,22.94H484l-11.63-21Zm0-24.28v8.9h9.49q4.29,0,4.29-4.45t-4.29-4.45Z"/><line class="cls-4" x1="20.34" y1="86.34" x2="551.85" y2="86.34"/><path class="cls-3" d="M42.71,111.05a13.06,13.06,0,0,1,1.38,3.63h.09a17,17,0,0,1,1.93-4.48l2.81-5.36h6.42L47,118.43v10H41.16v-10L33,104.84H39.4Z"/><path class="cls-3" d="M55.72,120.22c0-6.08.13-10,8.35-10s8.14,3.91,8.18,10S71.12,129,64.07,129C56.9,129,55.68,126.4,55.72,120.22Zm5.46,2.46c0,2.17.25,3.12,2.89,3.12s2.73-1,2.73-3.12v-5.93c0-1.67,0-3.37-2.73-3.37-2.89,0-2.89,1.7-2.89,3.37Z"/><path class="cls-3" d="M87.36,125.83h-.08c-.84,2.11-2.44,3.09-5.08,3.12-4.32,0-5.29-1.67-5.29-4.63V110.71h5.46v12.16a3.43,3.43,0,0,0,.54,2.36,2.48,2.48,0,0,0,1.68.57c2.56,0,2.52-2.18,2.52-3.56V110.71h5.46v17.77H87.36Z"/><path class="cls-3" d="M103.22,113.86h.09a5.94,5.94,0,0,1,2.14-2.52,5.72,5.72,0,0,1,3.4-1v4.85c-3-.22-5.33.35-5.42,3v10.28H98V110.71h5.24Z"/><path class="cls-2" d="M122.15,128.48V104.84h8.77c2.85,0,7,.19,9,2a6.08,6.08,0,0,1,2.06,5.13c0,2.56-.8,5.42-4.16,6.59-2.56.94-5.53.66-8.3.76v9.2ZM129.54,115c1.38,0,3,.1,4.15-.6a3,3,0,0,0,.92-2.39c0-.92-.12-2.3-1.38-2.74a12.69,12.69,0,0,0-2.9-.19h-.79Z"/><path class="cls-2" d="M142.09,128.48,149,104.84h8.9l6.84,23.64h-7.47l-1.05-4.6H150.4l-.88,4.6Zm11.33-19.35h-.09l-2.14,10.59h4.28Z"/><path class="cls-2" d="M174.19,128.48h-7.38V104.84h10.78c6,0,9.06,1.83,9.06,6.53,0,2.52-.79,4.31-3.9,5.38v.07c2.06.34,3.53,1.42,3.65,3.05.21,1.9.25,6,.67,7.47a2.08,2.08,0,0,0,.72.82v.32h-8.06a4,4,0,0,1-.42-1.36c-.13-2.08,0-4-.17-5.48s-.79-2.4-2.52-2.49h-2.43Zm0-13.58h2.52c2.14,0,2.64-1.48,2.64-2.93,0-2.81-1.55-2.93-5.16-2.87Z"/><path class="cls-2" d="M188.55,104.84h19.14v4.73h-6v18.91h-7.39V109.57h-5.79Z"/><path class="cls-3" d="M216.62,112.53h.09c1.21-2,3.65-2.3,4.91-2.3,3.1,0,5.62,1.36,5.45,4.54v13.71h-5.45V116.63c0-1.73-.25-2.87-2.31-2.93s-2.77,1.38-2.69,3.28v11.5h-5.45V110.71h5.45Z"/><path class="cls-3" d="M231.77,116.82c-.25-4.19,2.61-6.59,8-6.59,7.59,0,8.39,3,8.39,7.82v2.39H237.23V123c0,2.33,1.22,2.77,2.85,2.77,2,0,2.6-1.1,2.52-3.34h5.45c.21,4-2,6.49-7.55,6.49-6.29,0-8.85-2.24-8.73-7.47Zm10.91.47v-1.54c0-1.8-.67-2.37-2.85-2.37-2.73,0-2.6,1.58-2.6,3.19v.72Z"/><path class="cls-3" d="M258.34,113.86h.08a5.94,5.94,0,0,1,2.14-2.52,5.72,5.72,0,0,1,3.4-1v4.85c-3-.22-5.33.35-5.41,3v10.28h-5.46V110.71h5.25Z"/><path class="cls-3" d="M278.14,108.56v-3.72h5.46v3.72Zm0,19.92V110.71h5.46v17.77Z"/><path class="cls-3" d="M294.72,112.53h.08c1.22-2,3.65-2.3,4.91-2.3,3.11,0,5.62,1.36,5.46,4.54v13.71h-5.46V116.63c0-1.73-.25-2.87-2.31-2.93s-2.77,1.38-2.68,3.28v11.5h-5.46V110.71h5.46Z"/><path class="cls-3" d="M333,112c0-2.11-.21-4.19-3.44-4.19-2,0-3.23.6-3.23,2.2,0,1.8,1.51,2.49,3.36,3.38a55.86,55.86,0,0,1,7.13,3.87,5.51,5.51,0,0,1,2.64,4.95c0,4.47-3.94,6.8-9.69,6.8-7.05,0-9.57-3-9.57-7.18v-1.73h5.88v1.38c-.13,2.3.79,4,3.69,4,2.48,0,3.65-1,3.65-2.77,0-1.39-.84-2.33-2.35-3.12-3.06-1.8-6.88-3.09-9.27-5.45a5.47,5.47,0,0,1-1.51-3.62c0-4,3-6.24,9.23-6.24,9.36,0,9.1,5.42,9.15,7.75Z"/><path class="cls-3" d="M354.39,125.83h-.08c-.84,2.11-2.44,3.09-5.08,3.12-4.32,0-5.29-1.67-5.29-4.63V110.71h5.46v12.16a3.43,3.43,0,0,0,.54,2.36,2.46,2.46,0,0,0,1.68.57c2.56,0,2.52-2.18,2.52-3.56V110.71h5.45v17.77h-5.2Z"/><path class="cls-3" d="M373.9,116.88v-2c-.08-1-.71-1.52-1.88-1.52-2.1,0-2.1,1.8-2.06,4v4.19c-.13,3.47.42,4.1,2.06,4.26,1.67,0,1.72-1.2,1.88-2.62v-1.64h5.46v1.64c0,3.72-2.06,5.77-7.47,5.77-4.83,0-7.6-1.92-7.39-6.65v-5.77c0-5,3.24-6.3,7.39-6.3,5.5,0,7.51,2.59,7.47,5.23v1.42Z"/><path class="cls-3" d="M392.54,116.88v-2c-.09-1-.72-1.52-1.89-1.52-2.1,0-2.1,1.8-2.06,4v4.19c-.12,3.47.42,4.1,2.06,4.26,1.68,0,1.72-1.2,1.89-2.62v-1.64H398v1.64c0,3.72-2.06,5.77-7.47,5.77-4.82,0-7.59-1.92-7.38-6.65v-5.77c-.05-5,3.23-6.3,7.38-6.3,5.5,0,7.51,2.59,7.47,5.23v1.42Z"/><path class="cls-3" d="M401.93,116.82c-.25-4.19,2.61-6.59,8-6.59,7.59,0,8.39,3,8.39,7.82v2.39H407.39V123c0,2.33,1.22,2.77,2.85,2.77,2,0,2.6-1.1,2.52-3.34h5.46c.21,4-2,6.49-7.56,6.49-6.29,0-8.85-2.24-8.73-7.47Zm10.91.47v-1.54c0-1.8-.67-2.37-2.85-2.37-2.73,0-2.6,1.58-2.6,3.19v.72Z"/><path class="cls-3" d="M427.37,122.62c-.42,3.27,1.25,3.18,2.51,3.18,1.56,0,2.65-.85,2.27-2-.08-1-1.64-1.57-2.69-2.11l-3-1.54c-2.72-1.42-4.49-3.06-4.49-5.61,0-2.74,2.9-4.32,8.14-4.32s7.73,2.08,7.6,5.89h-5.46c.13-2-.62-2.74-2.51-2.74-1.3,0-2.31.44-2.31,1.45s1,1.52,2.05,2l4.45,2.27c1.39.6,3.57,2.3,3.74,3.5.46,3.09-.55,6.3-8.1,6.3-2.9,0-8.31-.91-7.68-6.33Z"/><path class="cls-3" d="M446,122.62c-.42,3.27,1.25,3.18,2.51,3.18,1.56,0,2.65-.85,2.27-2-.08-1-1.64-1.57-2.69-2.11l-3-1.54c-2.73-1.42-4.5-3.06-4.5-5.61,0-2.74,2.9-4.32,8.15-4.32s7.72,2.08,7.59,5.89h-5.45c.12-2-.63-2.74-2.52-2.74-1.3,0-2.31.44-2.31,1.45s1,1.52,2.06,2l4.44,2.27c1.39.6,3.57,2.3,3.74,3.5.46,3.09-.55,6.3-8.1,6.3-2.89,0-8.31-.91-7.68-6.33Z"/><path class="cls-2" d="M551.45,77.25H529.28V42.35H511.9V30.29c11.73-.16,20.26-3.39,22.71-13.75h16.84Z"/><path class="cls-2" d="M440.39,52.34,434,49.7a21.08,21.08,0,0,0,0-5.44l6.4-2.64a.3.3,0,0,0,.19-.39l-2.74-7.31a.38.38,0,0,0-.42-.22l-7,1.13a24.7,24.7,0,0,0-3.68-4.4l3.39-5.4a.3.3,0,0,0-.11-.42l-7.18-4.52a.44.44,0,0,0-.49,0l-4.87,4.46A32.7,32.7,0,0,0,411.77,23l-.24,0-.92-6.1a.36.36,0,0,0-.37-.28h-8.88a.35.35,0,0,0-.36.28l-.92,6.09a31.23,31.23,0,0,0-6,1.69l-4.88-4.47a.44.44,0,0,0-.49,0l-7.18,4.52a.3.3,0,0,0-.11.42l3.39,5.4a25,25,0,0,0-3.69,4.4l-7-1.13a.38.38,0,0,0-.42.22L371,41.23a.3.3,0,0,0,.19.39l6.41,2.64a21.08,21.08,0,0,0,0,5.44l-6.4,2.64a.3.3,0,0,0-.19.39l2.74,7.32a.38.38,0,0,0,.42.21l7-1.12a25.89,25.89,0,0,0,3.68,4.4l-3.39,5.4a.29.29,0,0,0,.11.41l7.18,4.52a.42.42,0,0,0,.49,0l4.88-4.46A31.52,31.52,0,0,0,399.83,71l.24,0,.93,6.1a.35.35,0,0,0,.36.28h8.88a.36.36,0,0,0,.37-.28l.91-6.09a32,32,0,0,0,6-1.68l4.88,4.46a.42.42,0,0,0,.49,0L430,69.35a.29.29,0,0,0,.11-.41l-3.39-5.4a25.71,25.71,0,0,0,3.69-4.4l7,1.12a.38.38,0,0,0,.42-.21l2.74-7.32A.3.3,0,0,0,440.39,52.34Zm-34.59,12C395,64.39,386.22,56.6,386.22,47S395,29.57,405.8,29.57s19.58,7.8,19.58,17.41S416.61,64.39,405.8,64.39Z"/><path class="cls-3" d="M521.6,105.26v-.83a.58.58,0,0,1,.58-.58h13c1.55,0,2.82,1.6,3.42,8.54,0,.39.07.79.11,1.2.2,2.35.41,5,.48,7.45a.57.57,0,0,1-.57.58h-8.36a1.71,1.71,0,0,1-1-.39L524,116.67a8.33,8.33,0,0,0-1.89-1.24,1,1,0,0,1-.53-.81v-.08a.91.91,0,0,1,.54-.79l5.37-2.09,0,0a3.78,3.78,0,0,0-1.37-7.3,3.59,3.59,0,0,0-1.37.26l-2.67,1A.37.37,0,0,1,521.6,105.26Zm-32.54,19c2.42,3,3.07,6.42-.8,7.82s-7.57,3-9.7,3h-4.32c-2.33,0-3.65,0-2.09-1.23s2.51-1.56,3.23-4.51,2.32-9.51,2.59-10.62.44-1.56,1.7-1.17S486.59,121.19,489.06,124.29Zm-.89,3.18a1.4,1.4,0,1,0,1.4,1.4A1.4,1.4,0,0,0,488.17,127.47Zm8.88-12.89h1.6a3.6,3.6,0,0,0,1.13-.22l7.39-2.89c.3-.12.29-.21,0-.21h-5.42a2.51,2.51,0,0,1-2.55-2.89l1.11-8.87a3.37,3.37,0,0,1,3.26-2.88h8a2.9,2.9,0,0,1,2.91,2.9v9c0,.08.23.06.53-.06l5-1.94a.91.91,0,0,0,.54-.79V94.91A1.45,1.45,0,0,0,519,93.46H504.91a6.75,6.75,0,0,0-6.53,5.77L496.54,114A.5.5,0,0,0,497.05,114.58Zm1.39,13a2.31,2.31,0,1,0,2.3,2.31A2.31,2.31,0,0,0,498.44,127.62Zm-6.27-1.1c-.15.29-.34.27-.46,0a11.35,11.35,0,0,0-1.74-2.92c-.25-.32-.53-.63-.83-.95a.66.66,0,0,1-.06-.86c1.57-1.9,3.83-3.44,7.9-5.05,5.71-2.25,28-10.94,28.25-11a2.62,2.62,0,0,1,1.9,4.88c-.23.08-22.53,8.77-28.22,11C494.4,123.36,493.14,124.71,492.17,126.52Zm32.76-18.4a1.25,1.25,0,1,0,1.25-1.25A1.25,1.25,0,0,0,524.93,108.12Zm9.39,21.81a5.87,5.87,0,0,1-5.86,5.86h-30a5.86,5.86,0,0,1-2.24-11.28L516,116.35a7,7,0,0,1,7.29,1.19l9.08,8A5.86,5.86,0,0,1,534.32,129.93Zm-2.33,0a3.49,3.49,0,0,0-1.2-2.65l-9.08-8a4.6,4.6,0,0,0-3.06-1.15,4.75,4.75,0,0,0-1.81.36l-19.75,8.16a3.53,3.53,0,0,0,1.35,6.8h30A3.53,3.53,0,0,0,532,129.93Zm6.6-7.15h-7c-.33,0-.39.17-.15.39l1.69,1.49a7,7,0,0,1,2.35,4.57.65.65,0,0,0,.62.58h.79c1.68,0,2.25-2.79,2.32-6.45A.58.58,0,0,0,538.59,122.78Zm-10.13,4.84a2.31,2.31,0,1,0,2.31,2.31A2.32,2.32,0,0,0,528.46,127.62Zm-9.81-7.88a3,3,0,1,0,3,3A3,3,0,0,0,518.65,119.74Z"/></svg>