<svg width="1971" height="615" viewBox="0 0 1971 615" fill="none" xmlns="http://www.w3.org/2000/svg">
<path fill-rule="evenodd" clip-rule="evenodd" d="M532.748 151.585C537.754 109.212 524.24 98.1102 486.692 98.1102C432.621 98.1102 404.36 138.706 392.648 195.812C380.975 252.917 389.367 293.5 443.412 293.5C485.577 293.5 510.388 280.984 520.815 236.718H662.847C655.571 267.664 646.22 297.637 615.313 323.343C570.606 360.45 502.23 376.61 431.22 376.61C265.363 376.61 225.377 305.717 247.893 195.812C264.559 114.439 320.212 15 505.291 15C588.219 15 642.615 31.1733 665.649 59.7456C682.056 80.199 684.65 101.132 674.78 151.585H532.748ZM867.666 24.0399H1041.32L1139.55 367.596H980.996L968.402 310.477H812.765L775.412 367.596H628.685L867.666 24.0399ZM969.077 235.317L942.307 115.399L864.138 235.33H969.077V235.317ZM1298.98 262.463C1295.5 276.224 1296.37 290.024 1303.2 299.064C1310.52 308.091 1321.92 312.851 1340.23 312.851C1369.09 312.851 1401.71 305.717 1407.36 278.118C1408.63 271.944 1407.42 266.704 1404.63 262.437C1390.31 240.531 1235.57 224.384 1199.45 183.918C1184.88 167.719 1184.35 143.453 1188.33 123.946C1203.74 48.7733 1277.1 15 1409.5 15C1550.15 15 1584.47 55.4398 1571.81 121.054H1435.27C1438.26 107.306 1434.74 95.4126 1426.1 88.2922C1417.95 81.1588 1404.68 78.7853 1387.3 78.7853C1357.96 78.7853 1340.05 90.1987 1336.46 107.799C1335.39 113.025 1335.82 119.692 1339.19 123.492C1356.34 144.892 1506.23 160.145 1541.85 201.051C1552.24 212.945 1561.7 231.517 1554.89 264.811C1540.94 332.85 1474.26 376.623 1323.54 376.623C1143.96 376.623 1160.83 324.64 1144.25 262.476H1298.98V262.463ZM1635.18 24.0399H1952.22L1937.4 101.664H1755.04L1742.1 154.373H1920.6L1905.82 237.25H1727.28L1714.33 289.972H1898.52L1883.7 367.596H1564.83L1635.18 24.0399ZM11 599.119L179.581 441.407H1929.95L1893.94 599.119H11Z" fill="black" stroke="black" stroke-width="29.9602" stroke-miterlimit="2.613"/>
</svg>
