<svg width="364" height="60" viewBox="0 0 364 60" fill="none" xmlns="http://www.w3.org/2000/svg">
<path d="M151.9 24.2962L148.599 24.3732V11.1712H152.382C155.248 11.1712 156.188 13.2741 156.188 17.8681C156.188 22.4621 155.13 24.2962 151.9 24.2962ZM168.558 54.4022V40.2482C168.558 33.5392 166.162 29.6382 161.047 28.7212C166.993 27.1432 168.622 22.1552 168.622 15.7652C168.622 6.75815 165.383 1.16016 154.88 1.16016H136.068L136.078 59.4792H148.601V34.1222H151.688C154.701 34.1222 156.132 36.2022 156.132 38.9772V54.4892C156.132 57.0692 156.651 58.9692 157.005 59.4762H169.672C169.23 58.9912 168.558 56.9822 168.558 54.4022Z" fill="black"/>
<path d="M28.083 49.561C30.323 47.691 30.709 45.379 30.709 43.303V34.585H18.533V46.411C18.533 48.108 17.163 49.478 15.472 49.478C13.781 49.478 12.523 48.108 12.523 46.411V12.899C12.523 11.209 13.782 9.836 15.472 9.836C17.162 9.836 18.533 11.209 18.533 12.899V24.806H30.691V12.454C30.691 5.62999 26.231 0.014 15.37 0C4.216 0 0 5.642 0 12.466V47.462C0 54.224 5.371 59.341 12.239 59.341H16.009L28.083 49.561Z" fill="black"/>
<path d="M345.935 24.2669H342.613V11.1409H346.414C349.274 11.1409 350.223 13.2439 350.223 17.8339C350.222 22.4319 349.173 24.2669 345.935 24.2669ZM362.58 54.3659V40.2159C362.58 33.5059 360.199 29.6089 355.082 28.6859C361.029 27.1129 362.655 22.1269 362.655 15.7419C362.655 6.72891 359.408 1.12891 348.911 1.12891H330.098V59.4499H342.654V34.0939H345.716C348.737 34.0939 350.151 36.1709 350.151 38.9469V54.4649C350.151 57.0439 350.683 58.9439 351.037 59.4509H363.695C363.253 58.9619 362.58 56.9449 362.58 54.3659Z" fill="black"/>
<path d="M304.021 38.4626L307.281 11.2506L310.535 38.4626H304.021ZM315.668 1.01562H298.827L288.825 59.4426H301.502L302.746 49.1356L311.803 49.1286L313.039 59.4416H325.727L315.668 1.01562Z" fill="black"/>
<path d="M231.704 59.4356V1.14355H244.547V48.3695H257.928V59.4356H231.704Z" fill="black"/>
<path d="M224.895 1.14648H212.064V59.4425H224.895V1.14648Z" fill="black"/>
<path d="M231.704 59.4356V1.14355H244.547V48.3695H257.928V59.4356H231.704Z" fill="black"/>
<path d="M261.021 59.4356V1.14355H273.852V48.3695H287.247V59.4356H261.021Z" fill="black"/>
<path d="M191.047 25.9975L187.219 25.9505V11.1635H191.029C194.283 11.1635 194.829 13.3935 194.829 18.7315C194.829 24.2465 194.279 25.9975 191.047 25.9975ZM194.279 1.14648H174.709V59.4655H187.258V36.3215H194.279C205.809 36.3215 207.756 28.9735 207.756 18.7335C207.756 8.49249 205.812 1.14648 194.279 1.14648Z" fill="black"/>
<path d="M114.385 12.2568V23.8068H127.675V35.2288H114.385V48.1748L130.175 48.1678V59.4228L101.531 59.4358V1.13184H101.518H129.657V12.2568H114.385Z" fill="black"/>
<path d="M76.0788 50.9344V12.4764H67.6748V1.14941H98.0838V12.4764H89.6388V59.2724H86.0368L76.0788 50.9344Z" fill="black"/>
<path d="M81.5255 59.359L51.9135 34.542L21.2285 59.359H81.5255Z" fill="#FFC400"/>
<path d="M48.6396 27.857L51.9176 11.101L55.1776 27.857H48.6396ZM60.3626 1.20898H43.3996L33.5176 45.552L51.9206 30.697L71.1066 46.777L60.3626 1.20898Z" fill="black"/>
</svg>
