<svg width="2275" height="281" viewBox="0 0 2275 281" fill="none" xmlns="http://www.w3.org/2000/svg">
<path d="M1828.64 54.8892V275.318H1878.61V194.614H1937.23L1997.44 275.318H2057.81L1995.21 191.436C2033.15 182.163 2047.4 152.057 2047.4 125.584C2047.4 81.2841 2018.44 54.8892 1969.87 54.8892H1828.64ZM1878.61 99.9287H1969.87C1987.37 99.9287 1997.44 108.945 1997.44 124.473C1997.44 146.285 1980.15 149.574 1969.87 149.574H1878.6L1878.61 99.9287ZM339.658 49.6479C259.414 49.6479 211.451 93.3377 211.451 166.65C211.451 217.511 243.041 276.675 331 280.323C333.837 280.44 336.702 280.481 339.658 280.481C434.267 280.481 467.865 219.15 467.865 166.653C467.865 93.3376 419.882 49.6454 339.658 49.6454V49.6479ZM339.658 94.6848C389.395 94.6848 417.821 120.076 417.821 164.35C417.821 226.196 368.902 235.441 339.658 235.441C310.421 235.441 261.335 226.196 261.335 164.35C261.335 150.512 264.164 138.55 269.52 128.604C270.054 127.61 270.6 126.618 271.185 125.665C283.503 105.635 307.005 94.6848 339.658 94.6848V94.6848ZM2075.28 54.8892H2274.18V99.9287H2125.25V142.505H2240.5V187.623H2125.25V230.2H2274.18V275.318H2075.28L2075.28 54.8892ZM1601.86 54.8892H1800.76V99.9287H1651.82V142.505H1767V187.623H1651.82V230.2H1800.76V275.318H1601.86L1601.86 54.8892ZM1375.08 54.8892H1573.9V99.9287H1424.96V142.505H1540.14V187.623H1424.96V230.2H1573.9V275.318H1375.08L1375.08 54.8892ZM751.681 54.8892H801.168L931.439 203.589V54.8892H981.403V275.318H931.439L801.644 124.948V275.318H751.681V54.8892ZM489.311 54.8892H539.274V142.505H669.227V54.8892H719.112V275.318H669.227V187.623H539.274V275.318H489.311V54.8892ZM1081.33 0V275.321H1202.07C1314.92 275.321 1354.9 202.219 1354.9 139.648C1354.9 52.271 1297.74 0.0024823 1202.07 0.0024823L1081.33 0ZM1131.37 45.436L1202.07 45.5173C1267.28 45.5173 1304.62 78.7193 1304.62 136.707C1304.62 217.747 1240.38 229.882 1202.07 229.882H1131.37V45.436ZM140.042 0.160108H190.005V171.894C189.281 248.023 153.201 280.481 69.2661 280.481C28.4817 280.481 0 273.968 0 273.966V222.971C0 222.971 28.3216 233.217 60.1306 233.217C93.8867 233.217 115.088 228.52 126.855 216.377C136.577 206.382 140.515 189.609 140.042 164.904V0.162591V0.160108Z" fill="#2F7D3F"/>
</svg>
