<?xml version="1.0" encoding="UTF-8" standalone="no"?>
<svg
   xmlns:dc="http://purl.org/dc/elements/1.1/"
   xmlns:cc="http://creativecommons.org/ns#"
   xmlns:rdf="http://www.w3.org/1999/02/22-rdf-syntax-ns#"
   xmlns:svg="http://www.w3.org/2000/svg"
   xmlns="http://www.w3.org/2000/svg"
   xmlns:sodipodi="http://sodipodi.sourceforge.net/DTD/sodipodi-0.dtd"
   xmlns:inkscape="http://www.inkscape.org/namespaces/inkscape"
   version="1.1"
   id="Layer_1"
   x="0px"
   y="0px"
   viewBox="0 0 612 396"
   style="enable-background:new 0 0 612 396;"
   xml:space="preserve"
   sodipodi:docname="Link-Belt-logo.svg"><metadata
   id="metadata41"><rdf:RDF><cc:Work
       rdf:about=""><dc:format>image/svg+xml</dc:format><dc:type
         rdf:resource="http://purl.org/dc/dcmitype/StillImage" /></cc:Work></rdf:RDF></metadata><defs
   id="defs39" /><sodipodi:namedview
   pagecolor="#ffffff"
   bordercolor="#666666"
   borderopacity="1"
   objecttolerance="10"
   gridtolerance="10"
   guidetolerance="10"
   inkscape:pageopacity="0"
   inkscape:pageshadow="2"
   inkscape:window-width="640"
   inkscape:window-height="480"
   id="namedview37" />
<style
   type="text/css"
   id="style2">
	.st0{fill-rule:evenodd;clip-rule:evenodd;fill:#D1D6DA;}
	.st1{fill-rule:evenodd;clip-rule:evenodd;fill:#1B1918;}
	.st2{fill-rule:evenodd;clip-rule:evenodd;fill:#E5271E;}
</style>
<path
   class="st0"
   d="M82.2,203.2c42.5-17.9,80.6-29.1,102.9-16.6C225,145.2,350.3,90.2,477.2,62.5  C353.6,78.6,187.9,139.9,82.2,203.2z"
   id="path4" />
<path
   class="st1"
   d="M109.4,195.7c42.5-17.9,80.6-29.1,102.9-16.6c39.9-41.4,165.2-96.4,292.1-124.1  C380.8,71.1,215.1,132.4,109.4,195.7z"
   id="path6" />
<polygon
   class="st2"
   points="47.9,294.1 113.9,294.1 113.9,269.4 81.4,269.4 81.4,207.9 47.9,207.9 "
   id="polygon8" />
<rect
   x="119.3"
   y="229.4"
   class="st2"
   width="27.7"
   height="64.7"
   id="rect10" />
<path
   class="st2"
   d="M151.7,294.1h25.9v-31.6c0-3.9-0.5-9.2,5.6-9.1c6.1,0,6.2,5.3,6.3,9.1l1,31.6h27.6v-42.4  c0-10.3-10.8-22.9-22.2-22.8c-11.4,0.1-13.1,3.5-18.3,7.6v-7.6h-25.9V294.1z"
   id="path12" />
<polygon
   class="st2"
   points="223.1,294.1 250.7,294.1 250.7,281.2 263.7,294.1 297.5,294.1 271.9,258.8 297.5,229 262.6,229   250.7,241 250.7,208.3 223.1,208.3 "
   id="polygon14" />
<rect
   x="288.7"
   y="247.8"
   class="st2"
   width="34.5"
   height="25.2"
   id="rect16" />
<path
   class="st2"
   d="M360.7,232.3h5.4c2.2,0,3.9,2.3,3.9,5.1c0,2.5-1.7,4.9-4.7,4.9h-4.5V232.3z M360.7,261.8h5.4  c2.2,0,3.9,2.3,3.9,5.1c0,2.5-1.7,4.9-4.7,4.9h-4.5V261.8z M329.5,294.1h42.9c23.4,0,30.6-10.3,31.6-23.9  c1.1-13.6-5.6-18.7-11.7-20.7c5.5-4.7,9.1-6.1,9.3-19.2c0.2-13.2-10.6-21.9-28.4-21.9h-43.8V294.1z"
   id="path18" />
<rect
   x="479.5"
   y="208.3"
   class="st2"
   width="30.7"
   height="85.7"
   id="rect20" />
<path
   class="st2"
   d="M550.5,294.1h12.2v-23.6c-7.3,0.6-12.2-3.7-12.2-8.7v-13.9h12.2v-18.5h-12.2v-21h-27.7v21h-9.2v18.5h9.2v29.1  C522.8,289.1,533.5,294.1,550.5,294.1z"
   id="path22" />
<rect
   x="119.3"
   y="207.9"
   class="st2"
   width="27.7"
   height="17.7"
   id="rect24" />
<path
   class="st2"
   d="M442,247.1c4,0,7.2,3.2,7.3,7.1h-14.7C434.7,250.3,438,247.1,442,247.1z M442.1,228.6c19,0,34.5,14.7,34.5,32.9  c0,2.2-0.2,4.4-0.7,6.4h-41.1c0,5.2,3.2,8.4,6.9,8.2c3.9-0.2,7.1-1.8,7.1-4l0-0.1h26c-4.6,13-17.5,22.3-32.6,22.3  c-19,0-34.5-14.7-34.5-32.9C407.7,243.3,423.1,228.6,442.1,228.6z"
   id="path26" />
<path
   class="st1"
   d="M497.3,104.8l0.7,2.4l2.3,0.9l-2.3,1.3c-0.4,1.3,0.6,1.8-0.4,3.2c-0.9,1.4-3.9,1.4-5.1-0.1  c-1.2-1.5-1.1-3.8,0.1-4.8c1.3-1,2.6-0.2,3.6-0.3L497.3,104.8z M489.1,96.9h10.5v2.5c0.8,0.3,0.4,2.2,0.4,3c0,2.1,2.1,3.6,3.2,4.1  c0.6,0.3,2.5,0.6,4.2,1.3c0.1,0.7,0.2,1.4,0.2,2.1c0,6.3-5.6,11.3-12.6,11.3c-6.9,0-12.6-5.1-12.6-11.3c0-4.3,2.7-8.1,6.7-10V96.9z"
   id="path28" />
<path
   class="st1"
   d="M495,82.4c3.5,0,6.4,2.9,6.4,6.4c0,3.5-2.8,6.4-6.4,6.4c-3.5,0-6.4-2.9-6.4-6.4C488.6,85.3,491.5,82.4,495,82.4  z"
   id="path30" />
<path
   class="st1"
   d="M522.3,329.2c0.2,8.2,8.3,11.8,18.4,11.8c8.7,0,17.5-3,17.5-10.4c0-3.4-2.8-7.1-8.6-8.4  c-2.3-0.5-12-2.4-12.7-2.6c-3.1-0.6-5.2-1.9-5.2-4.3c0-3.3,4.5-4.3,8.1-4.3c5.3,0,9.1,1.6,9.5,5.8h7.7c0-6.9-7.7-10.6-16.9-10.6  c-7.9,0-16.1,3.1-16.1,9.7c0,3.4,2.2,6.9,9.7,8.4c6,1.3,10,1.9,13.1,2.7c1.8,0.5,3.6,1.5,3.6,4.1c0,2.5-2.5,5-9.3,5  c-6.2,0-11.1-2-11.1-7.1H522.3z M434.8,340.3h32.1v-5h-24.4v-9.7h22.2v-4.7h-22.2v-8.7h24v-5h-31.7V340.3z M338.6,340.3h7.3v-24.4  h0.2l20,24.4h8.1v-33.1h-7.3v24.4h-0.1l-20.1-24.4h-8.1V340.3z M241.3,340.3h8l4.1-8.8H271l4.1,8.8h8.3l-16.9-33.1h-8.2L241.3,340.3  z M262.2,312.9h0.2l6.6,14.2h-13.4L262.2,312.9z M151.7,340.3h7.7v-13.6h11.3c7.1,0,8.7,2.7,8.7,8.8c0,1.6,0,3.4,1.2,4.9h8.3  c-1.7-1.3-2.4-4.9-2.4-8.7c0-5.2-3.9-6.7-6.5-7v-0.1c1.4-0.4,7.3-2,7.3-8.3c0-5.6-4.9-9-14.5-9h-21V340.3z M159.4,311.9h12.5  c4,0,7.6,0.8,7.6,5.1c0,3.5-2.6,5.3-7.5,5.3h-12.6V311.9z M93.2,317.7c-0.9-7.1-8.7-11.3-18.7-11.3c-13.2,0-21.1,7.9-21.1,17.3  c0,9.5,7.9,17.4,21.1,17.4c10.7,0,18.1-5.5,18.7-13.4h-7.5c-0.6,4.8-4.4,8.7-11.2,8.7c-9.4,0-13.4-6.3-13.4-12.6  c0-6.4,3.9-12.6,13.4-12.6c6.4,0,9.7,2.8,11,6.6H93.2z"
   id="path32" />
<path
   class="st2"
   d="M557.1,221.4h1.2c0.6,0,0.9-0.1,1.1-0.3c0.2-0.2,0.3-0.4,0.3-0.7c0-0.2-0.1-0.3-0.1-0.5  c-0.1-0.1-0.2-0.2-0.4-0.3c-0.2-0.1-0.5-0.1-1-0.1h-1.1V221.4z M556.1,224.8v-6h2.1c0.7,0,1.2,0.1,1.5,0.2c0.3,0.1,0.6,0.3,0.8,0.6  c0.2,0.3,0.3,0.6,0.3,0.9c0,0.4-0.2,0.8-0.5,1.1c-0.3,0.3-0.7,0.5-1.2,0.5c0.2,0.1,0.4,0.2,0.5,0.3c0.2,0.2,0.5,0.6,0.9,1.2l0.7,1.2  H560l-0.5-0.9c-0.4-0.7-0.8-1.2-1-1.4c-0.2-0.1-0.4-0.2-0.8-0.2h-0.6v2.5H556.1z M558.6,217c-0.8,0-1.5,0.2-2.3,0.6  c-0.7,0.4-1.3,1-1.7,1.7c-0.4,0.7-0.6,1.5-0.6,2.3c0,0.8,0.2,1.6,0.6,2.3c0.4,0.7,1,1.3,1.7,1.7c0.7,0.4,1.5,0.6,2.3,0.6  c0.8,0,1.6-0.2,2.3-0.6c0.7-0.4,1.3-1,1.7-1.7c0.4-0.7,0.6-1.5,0.6-2.3c0-0.8-0.2-1.6-0.6-2.3c-0.4-0.7-1-1.3-1.7-1.7  C560.1,217.2,559.3,217,558.6,217z M558.6,216.1c0.9,0,1.8,0.2,2.7,0.7c0.9,0.5,1.6,1.2,2.1,2.1c0.5,0.9,0.7,1.8,0.7,2.8  c0,1-0.2,1.9-0.7,2.8c-0.5,0.9-1.2,1.6-2.1,2.1c-0.9,0.5-1.8,0.7-2.8,0.7c-1,0-1.9-0.2-2.8-0.7c-0.9-0.5-1.6-1.2-2.1-2.1  c-0.5-0.9-0.7-1.8-0.7-2.8c0-1,0.2-1.9,0.8-2.8c0.5-0.9,1.2-1.6,2.1-2.1C556.7,216.4,557.6,216.1,558.6,216.1z"
   id="path34" />
</svg>
