<?xml version="1.0" encoding="utf-8"?>
<!-- Generator: Adobe Illustrator 25.2.0, SVG Export Plug-In . SVG Version: 6.00 Build 0)  -->
<svg version="1.1" id="Layer_1" xmlns="http://www.w3.org/2000/svg" xmlns:xlink="http://www.w3.org/1999/xlink" x="0px" y="0px"
	 viewBox="0 0 707.1 100" style="enable-background:new 0 0 707.1 100;" xml:space="preserve">
<style type="text/css">
	.st0{fill-rule:evenodd;clip-rule:evenodd;fill:#ED1C24;stroke:#000000;stroke-width:0.216;stroke-miterlimit:22.9256;}
</style>
<g>
	<polygon class="st0" points="13.3,13.3 69.3,13.3 69.2,87.1 48.6,87.1 48.6,31.1 13.3,31.1 13.3,13.3 	"/>
	<path class="st0" d="M82.1,59.1l0,9c0,8.7,4.8,19,13.6,19l56.1,0c2.8,0,6.9-2.1,6.9-4.2l0,4.2l19.5,0l0.2-16.2V31.4
		c0-8.7-7.3-18.3-16.2-18.3l-80.3,0L82,31l73,0.1c2.4,0,3.7,1.3,3.7,8.6l0,8.8c-1.1-3.8-3.5-8.7-6.8-8.8H95.7
		C91.5,40.6,82,52.3,82.1,59.1L82.1,59.1z M104.6,59.5l43.4,0c3.6,0,3.8,0.1,3.8,1.8l0,5.5c0,2.3-0.2,2.1-3.8,2.1l-43.3,0
		c-2.7,0-3.1-0.2-3.1-2l0-5.4C101.6,59.6,101.9,59.5,104.6,59.5L104.6,59.5z"/>
	<polygon class="st0" points="189.1,13.1 210.3,13.1 210.4,87.2 189.1,87.1 189.1,13.1 	"/>
	<polygon class="st0" points="258.5,13.2 290.4,13.1 248.3,50.5 290.4,87.2 258.6,87.1 222.6,59.4 222.6,39.8 258.5,13.2 	"/>
	<path class="st0" d="M379.4,68.8l0,18.1l-20.1,0h-27h-27.5c-11,0-21.1-7.5-21.1-18.2l-0.1-37.5c0-10.5,10.1-17.9,21.2-17.9h53.4
		c16.7,0,21.2,3.6,21.2,17.8v8.5c0,15.3-4.6,19.8-21.2,19.8l-53.3,0c0.1,4.5,0.3,9.3,3.8,9.4L379.4,68.8L379.4,68.8z M304.9,39.7
		h53.4c-0.2-4.6-0.3-8.6-3.9-8.5l-45.8,0C305.2,31.2,304.8,35.7,304.9,39.7L304.9,39.7z"/>
	<path class="st0" d="M404.3,13.1l0.1,46.3c0,9,0.7,9.3,8.9,9.4l32.1-0.1c8.4,0,9.1-0.3,9.2-9.3l0-46.1l19.1,0l0,17.7v37.9
		c0,9-9.6,18.4-19,18.4l-50.4-0.1c-9.5,0-18-8.6-18-18.3l0-55.6L404.3,13.1L404.3,13.1z"/>
	<path class="st0" d="M506.2,13.3H545l21.1,0l0,8.9l-0.1,8.9l-50.9,0c-8.5,0-8.9,0.2-8.9,8.6l0,19.7c-0.2,9,0.2,9.3,9.1,9.3
		l50.6,0.1l0.1,18.4l-59.8,0c-12.9,0-22-9-22-18.2L484,31.2C484,21.6,494.3,13.3,506.2,13.3L506.2,13.3z"/>
	<polygon class="st0" points="569.6,13.3 590,13.3 590,39.7 627.7,39.7 627.7,59.5 590,59.5 590,86.9 569.6,86.9 569.6,13.3 	"/>
	<polygon class="st0" points="640.6,13.1 661.1,13.1 661,87.1 640.5,87.2 640.6,13.1 	"/>
	<polygon class="st0" points="670.3,13.1 690.7,13.1 690.7,87.1 670.3,87.1 670.3,13.1 	"/>
</g>
</svg>
