<?xml version="1.0" encoding="utf-8"?>
<!-- Generator: Adobe Illustrator 19.0.0, SVG Export Plug-In . SVG Version: 6.00 Build 0)  -->
<svg version="1.1" id="Layer_1" xmlns="http://www.w3.org/2000/svg" xmlns:xlink="http://www.w3.org/1999/xlink" x="0px" y="0px"
	 viewBox="0 0 500 500" style="enable-background:new 0 0 500 500;" xml:space="preserve">
<style type="text/css">
	.st0{fill:#ED1C24;}
	.st1{fill:#231F20;}
</style>
<g id="XMLID_1_">
	<polyline id="XMLID_3_" class="st0" points="68,230.2 98.1,230.2 98.1,269.9 87,269.9 87,239.8 68,239.8 68,230.2 	"/>
	<polygon id="XMLID_4_" class="st1" points="68,230.2 68,230.7 97.6,230.7 97.5,269.3 87.5,269.3 87.6,239.3 68.6,239.2 68.6,230.2 
		68,230.2 68,230.7 68,230.2 67.5,230.2 67.5,240.3 86.5,240.3 86.5,270.4 98.6,270.4 98.7,229.7 67.5,229.7 67.5,230.2 	"/>
	<path id="XMLID_7_" class="st0" d="M105,254.8l0,4.9c0,4.7,2.6,10.2,7.3,10.2l30.1,0c1.5,0,3.7-1.1,3.7-2.3l0,2.3l10.5,0l0.1-8.7
		v-21.3c0-4.7-3.9-9.8-8.7-9.8l-43.1,0l0,9.6l39.2,0.1c1.3,0,2,0.7,2,4.6l0,4.7c-0.6-2-1.9-4.7-3.7-4.7h-30.2
		C110.1,244.9,105,251.1,105,254.8L105,254.8z M117.1,255l23.3,0c1.9,0,2,0,2,1l0,2.9c0,1.3-0.1,1.1-2,1.1l-23.3,0
		c-1.4,0-1.7-0.1-1.7-1.1l0-2.9C115.5,255.1,115.7,255,117.1,255"/>
	<path id="XMLID_10_" class="st1" d="M105,254.8l-0.5,0l0,4.9c0,2.4,0.7,5.1,2,7.1c0.6,1,1.5,1.9,2.5,2.6c1,0.6,2.1,1,3.4,1l30.2,0
		h0c0.9,0,1.9-0.3,2.7-0.8c0.4-0.2,0.8-0.5,1-0.8c0.3-0.3,0.5-0.7,0.5-1.2v0h-0.5l0.5,0l0,0h-0.5l0.5,0l-0.5,0l-0.5,0l0,2.8l11.5,0
		l0.1-9.2v-21.3c0-2.5-1-5-2.7-7c-0.8-1-1.8-1.8-2.9-2.4c-1.1-0.6-2.3-0.9-3.6-0.9l-43.6,0l0,10.7l39.7,0.1l0-0.5l0,0.5
		c0.3,0,0.5,0,0.6,0.1c0.1,0.1,0.2,0.1,0.3,0.3c0.1,0.2,0.3,0.6,0.4,1.2c0.1,0.6,0.2,1.4,0.2,2.5v0l0,4.7l0.5,0l0.5-0.1
		c-0.3-1-0.8-2.3-1.4-3.3c-0.3-0.5-0.7-0.9-1.2-1.3c-0.4-0.3-1-0.6-1.6-0.6l0,0h-30.2l-0.1,0c-0.4,0.1-0.7,0.3-1.1,0.5
		c-0.7,0.4-1.4,1.1-2.1,1.8c-1.1,1.2-2.2,2.6-3,4.2c-0.8,1.5-1.4,3-1.4,4.4v0L105,254.8l-0.5-0.1l0,0l0,0v0L105,254.8l0.5,0.1l0,0
		l0-0.1l0-0.1l0,0c0-0.8,0.3-1.8,0.8-2.9c0.7-1.6,1.9-3.3,3.1-4.6c0.6-0.7,1.2-1.2,1.7-1.6c0.5-0.4,1-0.7,1.3-0.7l-0.1-0.5v0.5h30.2
		v-0.5l0,0.5c0.3,0,0.6,0.1,1,0.4c0.5,0.4,0.9,1,1.3,1.7c0.4,0.7,0.7,1.5,0.9,2.3l1,3.6l0-8.5v0c0-2-0.2-3.2-0.6-4
		c-0.2-0.4-0.5-0.7-0.9-0.9c-0.4-0.2-0.7-0.2-1.1-0.2l0,0l-38.7-0.1l0-8.5l42.6,0c1.1,0,2.1,0.3,3.1,0.8c1.5,0.8,2.7,2.1,3.6,3.6
		c0.9,1.5,1.4,3.2,1.4,4.9v21.3l-0.1,8.2l-9.4,0l0-1.7l-1.1,0l0,0v0c0,0.1-0.1,0.3-0.2,0.5c-0.3,0.3-0.7,0.6-1.3,0.9
		c-0.5,0.2-1.2,0.4-1.6,0.4l0,0.5l0-0.5l-30.1,0h0c-1.1,0-2-0.3-2.9-0.9c-1.2-0.8-2.2-2.2-2.9-3.7c-0.7-1.6-1-3.4-1-5.1l0-4.9
		L105,254.8l0.5,0.1L105,254.8z M117.1,255l0,0.5l23.3,0h0c0.5,0,0.8,0,1.1,0c0.2,0,0.3,0,0.4,0.1l0,0l0,0l0,0l0,0l0,0l0,0l0.1-0.1
		l-0.1,0.1l0,0l0.1-0.1l-0.1,0.1l0.1,0l-0.1,0l0,0l0.1,0l-0.1,0l0,0c0,0,0,0.1,0,0.3l0,0.1l0,2.9c0,0.2,0,0.4,0,0.5l0,0.1l0,0l0.1,0
		l-0.1-0.1l0,0l0.1,0l-0.1-0.1l0.1,0.1l-0.1-0.1l0,0l0.1,0.1l-0.1-0.1l0,0l0,0l0,0l0,0l0,0l0,0c-0.1,0-0.3,0-0.5,0c-0.2,0-0.6,0-1,0
		l-23.3,0h0c-0.4,0-0.6,0-0.8,0c-0.1,0-0.2,0-0.3-0.1l0,0l0,0l0,0l0,0l0,0l0,0l0,0l0,0l0,0l0,0l0,0l0,0l0,0l0,0l0,0l0,0
		c0,0,0,0,0-0.1c0-0.1,0-0.2,0-0.3l0-2.9v0c0-0.2,0-0.4,0-0.4l0,0l-0.1,0l0,0l0,0l-0.1,0l0,0l0,0l0,0l0,0l0,0l0,0l0.1,0
		c0.1,0,0.5-0.1,1-0.1h0.5V255H117.1l0,0.5L117.1,255h-0.5l0,0H117.1v-0.5c-0.4,0-0.7,0-0.9,0c-0.2,0-0.4,0-0.5,0.1
		c-0.1,0.1-0.3,0.1-0.4,0.2c-0.2,0.2-0.2,0.4-0.3,0.6c0,0.2,0,0.4,0,0.6v0l0,2.9c0,0.3,0,0.5,0.1,0.7c0,0.2,0.1,0.4,0.3,0.5
		c0.1,0.1,0.2,0.2,0.4,0.2c0.2,0.1,0.4,0.1,0.6,0.1c0.2,0,0.5,0,0.8,0l23.3,0h0c0.4,0,0.7,0,1,0c0.3,0,0.5,0,0.7,0
		c0.2,0,0.3-0.1,0.5-0.2c0.1-0.1,0.2-0.2,0.3-0.3c0.1-0.2,0.1-0.4,0.1-0.5c0-0.2,0-0.4,0-0.6l0-2.9l0-0.1c0-0.2,0-0.4-0.1-0.7
		c-0.1-0.2-0.2-0.4-0.4-0.5c-0.1-0.1-0.3-0.1-0.4-0.2c-0.2-0.1-0.4-0.1-0.7-0.1c-0.3,0-0.6,0-1,0l-23.8,0v0.5H117.1z"/>
	<polyline id="XMLID_11_" class="st0" points="162.5,230.1 173.9,230.1 173.9,269.9 162.5,269.9 162.5,230.1 	"/>
	<polygon id="XMLID_12_" class="st1" points="162.5,230.1 162.5,230.7 173.4,230.6 173.4,269.3 163,269.3 163,230.1 162.5,230.1 
		162.5,230.7 162.5,230.1 162,230.1 162,270.4 174.5,270.4 174.4,229.6 162,229.6 162,230.1 	"/>
	<polyline id="XMLID_13_" class="st0" points="199.8,230.1 216.9,230.1 194.3,250.2 216.9,269.9 199.8,269.9 180.5,255 180.5,244.4 
		199.8,230.1 	"/>
	<polygon id="XMLID_14_" class="st1" points="199.8,230.1 199.8,230.7 215.5,230.6 193.5,250.2 215.5,269.3 200,269.3 181,254.7 
		181,244.7 200.1,230.6 199.8,230.1 199.8,230.7 199.8,230.1 199.5,229.7 180,244.1 180,255.2 199.6,270.4 218.3,270.4 195.1,250.2 
		218.3,229.6 199.6,229.6 199.5,229.7 	"/>
	<path id="XMLID_17_" class="st0" d="M264.7,260l0,9.7l-10.8,0h-29.3c-5.9,0-11.3-4-11.3-9.8l-0.1-20.1c0-5.6,5.4-9.6,11.4-9.6h28.7
		c8.9,0,11.4,1.9,11.4,9.6v4.6c0,8.2-2.5,10.6-11.4,10.6l-28.6,0c0.1,2.4,0.2,5,2,5L264.7,260z M224.7,244.4h28.7
		c-0.1-2.5-0.2-4.6-2.1-4.6l-24.6,0C224.9,239.8,224.7,242.2,224.7,244.4"/>
	<path id="XMLID_20_" class="st1" d="M264.7,260l-0.5,0l0,9.2l-10.3,0h-29.3c-2.8,0-5.6-1-7.5-2.6c-2-1.6-3.2-3.9-3.3-6.6l-0.1-20.1
		l0,0c0-2.6,1.3-4.9,3.3-6.5c2-1.6,4.7-2.6,7.6-2.6h28.7c2.2,0,4,0.1,5.4,0.4c1.1,0.2,1.9,0.5,2.6,0.9c1,0.6,1.7,1.5,2.1,2.7
		c0.4,1.2,0.6,2.9,0.6,5v4.6c0,2-0.2,3.7-0.5,5c-0.3,1-0.6,1.8-1.1,2.4c-0.7,1-1.8,1.6-3.3,2.1c-1.5,0.4-3.5,0.6-5.9,0.6h0l-29.2,0
		l0,0.5c0,1.2,0.1,2.5,0.4,3.5c0.1,0.5,0.4,1,0.7,1.4c0.4,0.4,0.9,0.6,1.5,0.6l0,0l38,0L264.7,260l-0.5,0L264.7,260l0-0.5l-38,0
		l0,0.5l0-0.5c-0.4,0-0.6-0.1-0.7-0.3c-0.1-0.1-0.3-0.4-0.4-0.6c-0.2-0.4-0.3-1-0.3-1.6c-0.1-0.6-0.1-1.3-0.1-2l-0.5,0l0,0.5l28.6,0
		h0h0c2.3,0,4.1-0.2,5.7-0.5c1.2-0.3,2.1-0.7,3-1.2c1.2-0.8,2.1-2.1,2.6-3.6c0.5-1.6,0.7-3.5,0.7-5.8v-4.6c0-1.9-0.2-3.5-0.5-4.9
		c-0.3-1-0.7-1.8-1.3-2.5c-0.9-1.1-2.2-1.7-3.8-2.1c-1.6-0.4-3.7-0.6-6.2-0.6h-28.7c-3.1,0-6,1-8.2,2.8c-2.2,1.8-3.7,4.3-3.7,7.3
		l0,0l0.1,20.1c0,3,1.5,5.7,3.6,7.5c2.2,1.8,5.1,2.9,8.2,2.9h29.3l11.3,0l0-10.8l-0.5,0L264.7,260z M224.7,244.4v0.5h29.2l0-0.6
		c0-1.2-0.1-2.4-0.4-3.4c-0.2-0.5-0.4-0.9-0.8-1.2c-0.4-0.3-0.9-0.5-1.5-0.5l0,0l0,0.5l0-0.5l-24.6,0h0l0,0c-0.5,0-1,0.2-1.4,0.5
		c-0.3,0.2-0.5,0.6-0.6,0.9c-0.2,0.5-0.3,1.1-0.4,1.7c-0.1,0.6-0.1,1.2-0.1,1.8c0,0.1,0,0.1,0,0.2L224.7,244.4v-0.5l0,0v1.1V244.4
		v0.5l0,0h0.5l0-0.5c0-0.1,0-0.1,0-0.2c0-1,0.1-2.1,0.3-2.8c0.1-0.4,0.3-0.6,0.4-0.8c0.2-0.2,0.4-0.2,0.7-0.2h0l24.6,0l0,0h0
		c0.4,0,0.6,0.1,0.8,0.2c0.1,0.1,0.2,0.3,0.3,0.5c0.2,0.3,0.3,0.8,0.3,1.4c0.1,0.6,0.1,1.2,0.1,1.9l0.5,0v-0.5h-28.7v1.1V244.4z"/>
	<path id="XMLID_21_" class="st0" d="M278.1,230.1l0,24.9c0,4.8,0.4,5,4.8,5l17.2,0c4.5,0,4.9-0.2,5-5l0-24.8l10.3,0l0,9.5V260
		c0,4.8-5.1,9.9-10.2,9.9l-27.1-0.1c-5.1,0-9.7-4.6-9.7-9.9l0-29.9L278.1,230.1"/>
	<path id="XMLID_22_" class="st1" d="M278.1,230.1l-0.5,0l0,24.9c0,1.2,0,2.1,0.1,2.9c0.1,0.6,0.2,1,0.5,1.4
		c0.2,0.3,0.4,0.5,0.7,0.7c0.5,0.3,1,0.4,1.6,0.4c0.6,0.1,1.4,0.1,2.3,0.1h0l17.3,0c1.1,0,2,0,2.8-0.1c0.5-0.1,1-0.2,1.4-0.4
		c0.3-0.2,0.5-0.4,0.7-0.7c0.3-0.5,0.4-1,0.5-1.7c0.1-0.7,0.1-1.5,0.1-2.5l0,0l0-24.2l9.2,0l0,9V260c0,2.2-1.2,4.6-3,6.4
		c-1.8,1.8-4.3,3-6.6,3h0h0l-27.1-0.1c-2.4,0-4.7-1.1-6.4-2.8c-1.7-1.7-2.8-4.1-2.8-6.5l0-29.4l9.2,0L278.1,230.1l-0.5,0
		L278.1,230.1l0-0.5l-10.2,0l0,30.4c0,2.8,1.2,5.4,3.1,7.3c1.9,1.9,4.4,3.1,7.1,3.1l27.1,0.1l0,0h0c2.7,0,5.4-1.3,7.4-3.3
		c2-1.9,3.4-4.5,3.4-7.1v-20.3l0-10l-11.3,0l0,25.3l0.5,0l-0.5,0c0,1.2,0,2.1-0.2,2.8c-0.1,0.5-0.2,0.8-0.3,1
		c-0.1,0.2-0.2,0.3-0.4,0.4c-0.3,0.1-0.7,0.2-1.2,0.3c-0.6,0.1-1.3,0.1-2.3,0.1l-17.2,0l0,0.5l0-0.5c-1.1,0-1.9,0-2.5-0.1
		c-0.5-0.1-0.8-0.2-1-0.3c-0.2-0.1-0.3-0.2-0.4-0.4c-0.1-0.3-0.3-0.7-0.3-1.3c-0.1-0.6-0.1-1.4-0.1-2.4l0-25.4l-0.5,0L278.1,230.1z"
		/>
	<path id="XMLID_23_" class="st0" d="M332.8,230.2h20.8l11.3,0l0,4.8l0,4.8l-27.3,0c-4.6,0-4.8,0.1-4.8,4.6l0,10.6
		c-0.1,4.8,0.1,5,4.9,5l27.2,0l0,9.9l-32.1,0c-6.9,0-11.8-4.8-11.8-9.8l-0.1-20.3C320.9,234.7,326.4,230.2,332.8,230.2"/>
	<path id="XMLID_24_" class="st1" d="M332.8,230.2v0.5h20.8l10.8,0l0,4.3v0l0,4.3l-26.8,0h0c-0.2,0-0.5,0-0.7,0c-1,0-1.8,0-2.4,0.1
		c-0.5,0.1-0.9,0.2-1.2,0.5c-0.3,0.2-0.5,0.4-0.6,0.7c-0.2,0.4-0.3,0.9-0.4,1.6c-0.1,0.6-0.1,1.4-0.1,2.3l0,10.6l0.5,0l-0.5,0
		c0,0.4,0,0.9,0,1.2c0,0.9,0,1.6,0.2,2.2c0.1,0.4,0.3,0.8,0.6,1.2c0.2,0.2,0.5,0.4,0.8,0.5c0.5,0.2,1,0.3,1.6,0.3
		c0.6,0,1.4,0.1,2.3,0.1h0l26.7,0l0,8.8l-31.6,0l0,0c-3.3,0-6.2-1.2-8.2-2.9c-2-1.7-3.1-4.1-3.1-6.3l-0.1-20.3l0,0
		c0-2.4,1.3-4.6,3.4-6.3c2.1-1.7,4.9-2.7,8-2.7l0,0V230.2v-0.5l0,0c-3.3,0-6.4,1.1-8.7,3c-2.3,1.8-3.7,4.4-3.7,7.1v0l0.1,20.3
		c0,2.6,1.3,5.2,3.5,7.1c2.2,1.9,5.3,3.2,8.9,3.2h0l32.6,0l0-10.9l-27.7,0h0c-1.1,0-1.9,0-2.5-0.1c-0.5,0-0.8-0.1-1-0.2
		c-0.2-0.1-0.3-0.2-0.4-0.3c-0.1-0.2-0.2-0.4-0.3-0.9c-0.1-0.4-0.1-1-0.1-1.8c0-0.4,0-0.8,0-1.2l0,0l0-10.6v0c0-1.1,0-1.9,0.1-2.5
		c0.1-0.4,0.1-0.7,0.3-0.9c0.1-0.1,0.2-0.2,0.3-0.3c0.2-0.1,0.5-0.2,1-0.3c0.5-0.1,1.1-0.1,2-0.1c0.2,0,0.4,0,0.7,0h0l27.9,0l0-5.3
		l0-5.3l-11.8,0h-20.8V230.2z"/>
	<polyline id="XMLID_25_" class="st0" points="366.9,230.2 377.9,230.2 377.9,244.4 398.1,244.4 398.1,255 377.9,255 377.9,269.8 
		366.9,269.8 366.9,230.2 	"/>
	<polygon id="XMLID_26_" class="st1" points="366.9,230.2 366.9,230.7 377.3,230.7 377.3,244.9 397.6,244.9 397.6,254.5 
		377.3,254.5 377.3,269.2 367.4,269.2 367.4,230.2 366.9,230.2 366.9,230.7 366.9,230.2 366.4,230.2 366.4,270.3 378.4,270.3 
		378.4,255.5 398.6,255.5 398.6,243.9 378.4,243.9 378.4,229.7 366.4,229.7 366.4,230.2 	"/>
	<polyline id="XMLID_27_" class="st0" points="405,230.1 416.1,230.1 416,269.9 405,269.9 405,230.1 	"/>
	<polygon id="XMLID_28_" class="st1" points="405,230.1 405,230.6 415.5,230.6 415.5,269.3 405.5,269.3 405.5,230.1 405,230.1 
		405,230.6 405,230.1 404.5,230.1 404.5,270.4 416.5,270.4 416.6,229.6 404.5,229.6 404.5,230.1 	"/>
	<polyline id="XMLID_29_" class="st0" points="421,230.1 432,230.1 432,269.9 421,269.9 421,230.1 	"/>
	<polygon id="XMLID_30_" class="st1" points="421,230.1 421,230.6 431.4,230.6 431.4,269.3 421.5,269.3 421.5,230.1 421,230.1 
		421,230.6 421,230.1 420.5,230.1 420.5,270.4 432.5,270.4 432.5,229.6 420.5,229.6 420.5,230.1 	"/>
</g>
</svg>
