<svg width="666" height="137" viewBox="0 0 666 137" fill="none" xmlns="http://www.w3.org/2000/svg">
<g clip-path="url(#clip0)">
<path fill-rule="evenodd" clip-rule="evenodd" d="M253.87 20.7803L239.79 38.9403H218.81V90.8003H197.06V38.9403H168.22L182.2 20.7803H253.87Z" fill="#E40520"/>
<path d="M253.87 20.7803L239.79 38.9403H218.81V90.8003H197.06V38.9403H168.22L182.2 20.7803H253.87Z" stroke="#E40520" stroke-width="1.48" stroke-miterlimit="3.86"/>
<path fill-rule="evenodd" clip-rule="evenodd" d="M361 90.8003H329.42L308.25 73.2203H278.34V90.8003H256.59V55.0603H317C320.126 55.1655 323.238 54.603 326.13 53.4103C329.13 51.9903 330.69 49.8803 330.69 47.1003C330.69 41.6603 326.127 38.9403 317 38.9403H256.6L270.78 20.7803H315C325.94 20.7803 334.81 22.8536 341.61 27.0003C349.203 31.7203 353 38.4536 353 47.2003C353.014 52.0666 351.37 56.7926 348.34 60.6003C345.017 64.7523 340.617 67.9108 335.62 69.7303L361 90.8003Z" fill="#E40520"/>
<path d="M361 90.8003H329.42L308.25 73.2203H278.34V90.8003H256.59V55.0603H317C320.126 55.1655 323.238 54.603 326.13 53.4103C329.13 51.9903 330.69 49.8803 330.69 47.1003C330.69 41.6603 326.127 38.9403 317 38.9403H256.6L270.78 20.7803H315C325.94 20.7803 334.81 22.8536 341.61 27.0003C349.203 31.7203 353 38.4536 353 47.2003C353.014 52.0666 351.37 56.7926 348.34 60.6003C345.017 64.7523 340.617 67.9108 335.62 69.7303L361 90.8003Z" stroke="#E40520" stroke-width="1.48" stroke-miterlimit="3.86"/>
<path fill-rule="evenodd" clip-rule="evenodd" d="M397.2 90.7999L410.31 72.6398H439.54L421.39 47.4898L389.82 90.7999H362.93L407.79 28.5498C409.362 26.3434 411.379 24.4904 413.71 23.1098C416.115 21.5462 418.903 20.6744 421.77 20.5898C424.641 20.6533 427.435 21.5269 429.83 23.1098C432.127 24.5029 434.112 26.3549 435.66 28.5498L479.46 90.7999H397.2Z" fill="#E40520"/>
<path d="M397.2 90.7999L410.31 72.6398H439.54L421.39 47.4898L389.82 90.7999H362.93L407.79 28.5498C409.362 26.3434 411.379 24.4904 413.71 23.1098C416.115 21.5462 418.903 20.6744 421.77 20.5898C424.641 20.6533 427.435 21.5269 429.83 23.1098C432.127 24.5029 434.112 26.3549 435.66 28.5498L479.46 90.7999H397.2Z" stroke="#E40520" stroke-width="1.48" stroke-miterlimit="3.86"/>
<path fill-rule="evenodd" clip-rule="evenodd" d="M571.32 72.7403L557.32 90.8003H522.19C510.017 90.8003 499.917 87.4336 491.89 80.7003C483.863 73.9669 479.88 65.4536 479.94 55.1603C479.816 50.3758 480.825 45.6297 482.884 41.3093C484.943 36.989 487.995 33.2167 491.79 30.3003C499.69 23.9469 509.823 20.7736 522.19 20.7803H571.32L557.32 38.9403H522.19C516.23 38.9403 511.31 40.5603 507.43 43.8003C505.575 45.2392 504.082 47.0916 503.07 49.2097C502.058 51.3279 501.554 53.6532 501.6 56.0003C501.556 58.3185 502.062 60.6142 503.075 62.6998C504.088 64.7853 505.581 66.6016 507.43 68.0003C511.31 71.1136 516.23 72.6703 522.19 72.6703L571.32 72.7403Z" fill="#E40520"/>
<path d="M571.32 72.7403L557.32 90.8003H522.19C510.017 90.8003 499.917 87.4336 491.89 80.7003C483.863 73.9669 479.88 65.4536 479.94 55.1603C479.816 50.3758 480.825 45.6297 482.884 41.3093C484.943 36.989 487.995 33.2167 491.79 30.3003C499.69 23.9469 509.823 20.7736 522.19 20.7803H571.32L557.32 38.9403H522.19C516.23 38.9403 511.31 40.5603 507.43 43.8003C505.575 45.2392 504.082 47.0916 503.07 49.2097C502.058 51.3279 501.554 53.6532 501.6 56.0003C501.556 58.3185 502.062 60.6142 503.075 62.6998C504.088 64.7853 505.581 66.6016 507.43 68.0003C511.31 71.1136 516.23 72.6703 522.19 72.6703L571.32 72.7403Z" stroke="#E40520" stroke-width="1.48" stroke-miterlimit="3.86"/>
<path fill-rule="evenodd" clip-rule="evenodd" d="M663.39 90.8003H630.37L596.77 67.3903V90.8003H575.01V20.7803H596.77V44.7703L630.37 20.7803H663L613.08 56.3203L663.39 90.8003Z" fill="#E40520"/>
<path d="M663.39 90.8003H630.37L596.77 67.3903V90.8003H575.01V20.7803H596.77V44.7703L630.37 20.7803H663L613.08 56.3203L663.39 90.8003Z" stroke="#E40520" stroke-width="1.48" stroke-miterlimit="3.86"/>
<path fill-rule="evenodd" clip-rule="evenodd" d="M90 32L112.1 0H180.16L119.46 77.31C108.33 88.63 99.46 91.63 89.84 91.63C80.22 91.63 71.84 88.77 60.71 77.45L0 0.31L68.07 0.14L90 32Z" fill="#E40520"/>
<path fill-rule="evenodd" clip-rule="evenodd" d="M203.75 111.66H216C220.08 111.66 222.3 112.66 222.3 115.57C222.3 118.13 219.6 119.57 216 119.57H203.75V111.66ZM196.26 136.12H215.92C227.01 136.12 231.69 132.64 231.69 128.12C231.69 124.24 228.87 121.53 223.69 120.77V120.69C227.58 119.57 229.8 117.49 229.8 114.61C229.8 109.86 224.8 107.54 217.09 107.54H196.29L196.26 136.12ZM203.75 123.12H217C221.56 123.12 224.2 124.71 224.2 127.51C224.2 130.31 221.56 132 217 132H203.75V123.12Z" fill="#E40520"/>
<path fill-rule="evenodd" clip-rule="evenodd" d="M266.26 136.12H273.76V124.92L289.76 107.58H281.37L270.22 120.37L258.89 107.58H250.2L266.26 124.92V136.12Z" fill="#E40520"/>
<path fill-rule="evenodd" clip-rule="evenodd" d="M342.79 136.12H350.28V125.2H361.67C373.9 125.2 376.24 119.96 376.24 116.43C376.24 112.9 373.9 107.58 361.67 107.58H342.79V136.12ZM350.28 111.66H361.37C365.37 111.66 368.75 112.66 368.75 116.39C368.75 120 364.61 121.13 361.25 121.13H350.25L350.28 111.66Z" fill="#E40520"/>
<path fill-rule="evenodd" clip-rule="evenodd" d="M390 136.12H397.73L401.73 128.56H418.81L422.81 136.12H430.81L414.32 107.58H406.32L390 136.12ZM410.26 112.49H410.44L416.85 124.76H403.81L410.26 112.49Z" fill="#E40520"/>
<path fill-rule="evenodd" clip-rule="evenodd" d="M449.07 126.6C449.25 133.68 457.17 136.79 466.94 136.79C475.45 136.79 483.94 134.24 483.94 127.84C483.94 124.84 481.24 121.69 475.6 120.57C473.38 120.13 463.91 118.49 463.25 118.37C460.19 117.81 458.16 116.69 458.16 114.69C458.16 111.82 462.53 110.98 466.01 110.98C471.17 110.98 474.88 112.33 475.24 115.98H482.74C482.74 109.98 475.24 106.87 466.31 106.87C458.58 106.87 450.66 109.55 450.66 115.26C450.66 118.26 452.82 121.18 460.13 122.5C466.01 123.58 469.91 124.09 472.9 124.85C474.64 125.29 476.44 126.17 476.44 128.37C476.44 130.57 473.98 132.69 467.39 132.69C461.39 132.69 456.54 130.97 456.54 126.57L449.07 126.6Z" fill="#E40520"/>
<path fill-rule="evenodd" clip-rule="evenodd" d="M504.57 126.6C504.75 133.68 512.67 136.79 522.44 136.79C530.95 136.79 539.44 134.24 539.44 127.84C539.44 124.84 536.75 121.69 531.11 120.57C528.89 120.13 519.42 118.49 518.76 118.37C515.7 117.81 513.66 116.69 513.66 114.69C513.66 111.82 518.04 110.98 521.52 110.98C526.67 110.98 530.39 112.33 530.75 115.98H538.24C538.24 109.98 530.75 106.87 521.82 106.87C514.08 106.87 506.17 109.55 506.17 115.26C506.17 118.26 508.33 121.18 515.64 122.5C521.52 123.58 525.42 124.09 528.41 124.85C530.15 125.29 531.95 126.17 531.95 128.37C531.95 130.57 529.49 132.69 522.9 132.69C516.9 132.69 512.05 130.97 512.05 126.57L504.57 126.6Z" fill="#E40520"/>
<path d="M570.14 107.58H562.65V136.12H570.14V107.58Z" fill="#E40520"/>
<path fill-rule="evenodd" clip-rule="evenodd" d="M595.66 136.12H602.8V115.13H602.98L622.46 136.12H630.37V107.58H623.24V128.6H623.12L603.58 107.58H595.66V136.12Z" fill="#E40520"/>
<path d="M663.38 107.58H655.89V136.12H663.38V107.58Z" fill="#E40520"/>
</g>
<defs>
<clipPath id="clip0">
<rect width="665.78" height="136.79" fill="white"/>
</clipPath>
</defs>
</svg>
